<svg width="44" height="44" viewBox="0 0 44 44" fill="none" xmlns="http://www.w3.org/2000/svg">
<g filter="url(#filter0_d_342_1806)">
<path d="M40 18C40 27.9411 31.9411 36 22 36C12.0589 36 4 27.9411 4 18C4 8.05888 12.0589 0 22 0C31.9411 0 40 8.05888 40 18Z" fill="#1F075F"/>
<path d="M17.5988 15.3409C18.3818 15.3409 18.9912 15.6108 19.4271 16.1506C19.871 16.6904 20.093 17.4212 20.093 18.3431V22.4166H17.4172V18.6919C17.4172 18.3597 17.3284 18.0981 17.1509 17.9071C16.9814 17.7078 16.7513 17.6081 16.4607 17.6081C16.1621 17.6081 15.928 17.7078 15.7585 17.9071C15.589 18.0981 15.5043 18.3597 15.5043 18.6919V22.4166H12.8164V15.3907H15.5043V16.462C15.7141 16.1298 15.9926 15.8599 16.3397 15.6523C16.6948 15.4447 17.1146 15.3409 17.5988 15.3409Z" fill="white"/>
<path d="M28.4745 15.3547C28.3366 15.4682 28.2065 15.5878 28.0843 15.7135C27.9621 15.8352 27.8459 15.965 27.7355 16.1028C28.106 16.1758 28.4568 16.2934 28.7878 16.4556C29.1189 16.6138 29.4066 16.8145 29.651 17.0578C29.8953 17.3011 30.0884 17.585 30.2303 17.9094C30.3761 18.2297 30.4491 18.5866 30.4491 18.9799C30.4491 19.426 30.3761 19.8294 30.2303 20.1903C30.0884 20.5472 29.8894 20.8675 29.6332 21.1514C29.381 21.4312 29.0815 21.6745 28.7346 21.8813C28.3878 22.0841 28.0114 22.2524 27.6055 22.3862C27.1995 22.5159 26.7719 22.6133 26.3226 22.6781C25.8733 22.743 25.4201 22.7755 24.9629 22.7755C24.8013 22.7755 24.6338 22.7714 24.4604 22.7633C24.287 22.7592 24.1175 22.7511 23.9519 22.739C23.7904 22.7268 23.6386 22.7086 23.4967 22.6842C23.3588 22.6639 23.2425 22.6376 23.1479 22.6051C23.2583 22.5119 23.3627 22.4186 23.4613 22.3253C23.5637 22.228 23.6564 22.1307 23.7391 22.0334C23.3647 21.9604 23.012 21.8509 22.6809 21.7049C22.3538 21.5589 22.0661 21.3724 21.8178 21.1453C21.5695 20.9142 21.3724 20.6445 21.2266 20.3363C21.0847 20.0241 21.0138 19.6672 21.0138 19.2658C21.0138 18.7954 21.0965 18.3716 21.2621 17.9945C21.4315 17.6133 21.6621 17.2747 21.9537 16.9787C22.2454 16.6827 22.5883 16.4293 22.9824 16.2184C23.3765 16.0075 23.8002 15.8332 24.2535 15.6953C24.7067 15.5574 25.1777 15.456 25.6664 15.3912C26.159 15.3263 26.6477 15.2938 27.1325 15.2938C27.3335 15.2938 27.5385 15.2999 27.7473 15.3121C27.9602 15.3202 28.1829 15.3344 28.4154 15.3547H28.4745ZM27.8833 18.5541C27.8833 18.2094 27.8104 17.9276 27.6646 17.7086C27.5227 17.4897 27.3335 17.3153 27.097 17.1855C27.0537 17.291 27.0123 17.4004 26.9729 17.514C26.9335 17.6235 26.898 17.737 26.8665 17.8546C26.5906 17.7735 26.3581 17.7188 26.1689 17.6904C25.9836 17.662 25.828 17.6478 25.7019 17.6478C25.4536 17.6478 25.2033 17.6904 24.951 17.7755C24.6988 17.8607 24.4722 17.9844 24.2712 18.1466C24.0702 18.3047 23.9047 18.4994 23.7746 18.7305C23.6485 18.9576 23.5854 19.2151 23.5854 19.503C23.5854 19.7788 23.6524 20.0322 23.7864 20.2633C23.9244 20.4904 24.1037 20.7013 24.3244 20.8959C24.3599 20.7702 24.3855 20.6425 24.4012 20.5127C24.421 20.383 24.4347 20.2491 24.4426 20.1113C24.7343 20.2491 24.9924 20.3444 25.2171 20.3972C25.4417 20.4499 25.6388 20.4762 25.8083 20.4762C26.0684 20.4762 26.3226 20.4337 26.5709 20.3485C26.8192 20.2593 27.0399 20.1315 27.233 19.9653C27.4301 19.799 27.5877 19.5983 27.706 19.3631C27.8242 19.1239 27.8833 18.8542 27.8833 18.5541ZM28.0784 13.7002C27.8932 13.7853 27.7158 13.8746 27.5463 13.9678C27.3769 14.0611 27.2113 14.1625 27.0498 14.272C26.8921 14.3814 26.7345 14.499 26.5768 14.6247C26.4231 14.7505 26.2694 14.8904 26.1157 15.0444L25.3294 14.1807C25.6014 13.9455 25.8595 13.6941 26.1039 13.4265C26.3482 13.1548 26.5748 12.8425 26.7837 12.4897C26.835 12.5952 26.9098 12.7067 27.0084 12.8243C27.1069 12.9378 27.2153 13.0493 27.3335 13.1588C27.4557 13.2643 27.5818 13.3656 27.7119 13.463C27.8419 13.5562 27.9641 13.6353 28.0784 13.7002Z" fill="white"/>
</g>
<defs>
<filter id="filter0_d_342_1806" x="0" y="0" width="44" height="44" filterUnits="userSpaceOnUse" color-interpolation-filters="sRGB">
<feFlood flood-opacity="0" result="BackgroundImageFix"/>
<feColorMatrix in="SourceAlpha" type="matrix" values="0 0 0 0 0 0 0 0 0 0 0 0 0 0 0 0 0 0 127 0" result="hardAlpha"/>
<feOffset dy="4"/>
<feGaussianBlur stdDeviation="2"/>
<feComposite in2="hardAlpha" operator="out"/>
<feColorMatrix type="matrix" values="0 0 0 0 0.121569 0 0 0 0 0.027451 0 0 0 0 0.372549 0 0 0 0.18 0"/>
<feBlend mode="normal" in2="BackgroundImageFix" result="effect1_dropShadow_342_1806"/>
<feBlend mode="normal" in="SourceGraphic" in2="effect1_dropShadow_342_1806" result="shape"/>
</filter>
</defs>
</svg>
